<svg width="175" height="55" fill="none" xmlns="http://www.w3.org/2000/svg"><g clip-path="url('#clip0_220_83')"><path d="M161.064 0H13.944c-.537 0-1.066 0-1.601.003-.448.003-.892.01-1.344.017-.982.011-1.962.092-2.93.243-.968.155-1.905.445-2.78.862A9.414 9.414 0 0 0 2.92 2.746 8.703 8.703 0 0 0 .284 7.592c-.163.91-.25 1.83-.262 2.753-.013.421-.015.845-.022 1.266v31.782c.007.427.009.84.022 1.268.012.922.1 1.843.262 2.752.161.912.47 1.795.914 2.619a8.582 8.582 0 0 0 1.723 2.22 9.177 9.177 0 0 0 2.367 1.62c.876.419 1.813.711 2.78.868.97.15 1.949.23 2.93.243.453.01.897.014 1.345.014.535.003 1.065.003 1.6.003h147.121c.526 0 1.06 0 1.585-.003.446 0 .903-.005 1.349-.014.98-.012 1.957-.093 2.924-.243a10.39 10.39 0 0 0 2.791-.868 9.184 9.184 0 0 0 2.365-1.62 8.858 8.858 0 0 0 1.728-2.22 8.679 8.679 0 0 0 .905-2.618c.164-.91.254-1.83.272-2.753.006-.427.006-.84.006-1.268.011-.5.011-.996.011-1.504V13.112c0-.503 0-1.003-.011-1.5 0-.422 0-.845-.006-1.267a17.433 17.433 0 0 0-.272-2.753 8.7 8.7 0 0 0-.905-2.617c-.903-1.654-2.334-3-4.093-3.85a10.337 10.337 0 0 0-2.791-.862 20.238 20.238 0 0 0-2.924-.243c-.446-.007-.903-.015-1.349-.017C162.124 0 161.59 0 161.064 0Z" fill="#A6A6A6"/><path d="M12.35 53.797c-.446 0-.88-.005-1.323-.015a19.715 19.715 0 0 1-2.733-.224 8.989 8.989 0 0 1-2.423-.754 7.904 7.904 0 0 1-2.043-1.397 7.356 7.356 0 0 1-1.492-1.92 7.543 7.543 0 0 1-.794-2.28 16.077 16.077 0 0 1-.244-2.577c-.01-.29-.021-1.256-.021-1.256V11.611s.013-.95.021-1.23a16.02 16.02 0 0 1 .242-2.574c.14-.796.408-1.566.795-2.286A7.426 7.426 0 0 1 3.82 3.6a8.137 8.137 0 0 1 2.05-1.406 8.9 8.9 0 0 1 2.418-.748c.907-.139 1.824-.214 2.743-.225l1.32-.017h150.291l1.335.018c.911.01 1.82.084 2.718.223.85.136 1.674.39 2.444.753 1.518.736 2.752 1.9 3.532 3.328.381.714.644 1.479.782 2.267.152.858.237 1.725.254 2.595.005.39.005.808.005 1.224.011.516.011 1.006.011 1.501V41.89c0 .5 0 .987-.011 1.478 0 .448 0 .857-.006 1.279a16.522 16.522 0 0 1-.25 2.548 7.547 7.547 0 0 1-.79 2.297 7.558 7.558 0 0 1-1.485 1.905 7.903 7.903 0 0 1-2.046 1.406 8.969 8.969 0 0 1-2.44.756c-.904.139-1.817.214-2.733.224-.429.01-.877.015-1.313.015l-1.585.003-148.714-.003Z" fill="#000"/><path d="M36.223 27.913a6.495 6.495 0 0 1 .942-3.27 7.013 7.013 0 0 1 2.504-2.439 7.28 7.28 0 0 0-2.545-2.132 7.776 7.776 0 0 0-3.292-.834c-2.456-.243-4.836 1.381-6.088 1.381-1.275 0-3.202-1.357-5.277-1.317a8.136 8.136 0 0 0-3.796 1.065 7.53 7.53 0 0 0-2.745 2.686c-2.829 4.604-.719 11.37 1.99 15.092 1.356 1.822 2.94 3.858 5.013 3.785 2.029-.079 2.786-1.216 5.235-1.216 2.426 0 3.136 1.217 5.251 1.17 2.177-.033 3.548-1.83 4.856-3.67a14.724 14.724 0 0 0 2.22-4.252 6.913 6.913 0 0 1-3.102-2.42 6.298 6.298 0 0 1-1.166-3.629ZM32.228 16.79c1.187-1.34 1.771-3.061 1.63-4.8-1.813.18-3.488.994-4.691 2.282a6.295 6.295 0 0 0-1.326 2.155 6.02 6.02 0 0 0-.347 2.467 6.316 6.316 0 0 0 2.624-.54c.82-.365 1.542-.9 2.11-1.564ZM61.864 37.317h-6.922l-1.663 4.615h-2.932l6.557-17.075h3.046l6.557 17.075h-2.982l-1.661-4.615Zm-6.205-2.13h5.487l-2.705-7.49h-.076l-2.706 7.49ZM80.667 35.708c0 3.869-2.202 6.354-5.525 6.354a4.722 4.722 0 0 1-2.416-.526 4.362 4.362 0 0 1-1.75-1.652h-.063v6.166h-2.718V29.483h2.63v2.07h.05a4.573 4.573 0 0 1 1.785-1.647 4.938 4.938 0 0 1 2.432-.553c3.36 0 5.575 2.498 5.575 6.355Zm-2.793 0c0-2.52-1.386-4.177-3.5-4.177-2.076 0-3.473 1.692-3.473 4.177 0 2.509 1.397 4.189 3.474 4.189 2.113 0 3.499-1.645 3.499-4.189ZM95.24 35.708c0 3.869-2.202 6.354-5.526 6.354a4.721 4.721 0 0 1-2.415-.526 4.362 4.362 0 0 1-1.75-1.652h-.063v6.166h-2.718V29.483h2.63v2.07h.05a4.573 4.573 0 0 1 1.785-1.647 4.938 4.938 0 0 1 2.431-.553c3.36 0 5.576 2.498 5.576 6.355Zm-2.794 0c0-2.52-1.385-4.177-3.498-4.177-2.077 0-3.474 1.692-3.474 4.177 0 2.509 1.397 4.189 3.474 4.189 2.113 0 3.498-1.645 3.498-4.189ZM104.871 37.175c.202 1.693 1.951 2.805 4.342 2.805 2.291 0 3.939-1.112 3.939-2.639 0-1.325-.994-2.119-3.348-2.663l-2.353-.533c-3.335-.757-4.883-2.223-4.883-4.603 0-2.946 2.73-4.97 6.608-4.97 3.837 0 6.468 2.024 6.557 4.97h-2.744c-.164-1.704-1.662-2.732-3.852-2.732-2.189 0-3.687 1.04-3.687 2.555 0 1.207.957 1.918 3.297 2.461l2.001.462c3.726.829 5.274 2.236 5.274 4.733 0 3.195-2.706 5.196-7.01 5.196-4.028 0-6.747-1.954-6.923-5.042h2.782ZM121.888 26.537v2.946h2.518v2.024h-2.518v6.863c0 1.066.504 1.563 1.611 1.563.299-.005.597-.025.894-.06v2.012a7.94 7.94 0 0 1-1.51.118c-2.681 0-3.726-.946-3.726-3.36v-7.136h-1.925v-2.024h1.925v-2.946h2.731ZM125.864 35.708c0-3.916 2.453-6.378 6.279-6.378 3.839 0 6.281 2.462 6.281 6.378 0 3.928-2.429 6.379-6.281 6.379-3.85 0-6.279-2.451-6.279-6.379Zm9.791 0c0-2.686-1.309-4.272-3.512-4.272-2.202 0-3.51 1.598-3.51 4.272 0 2.698 1.308 4.272 3.51 4.272 2.203 0 3.512-1.574 3.512-4.272ZM140.665 29.483h2.592v2.12h.063a2.964 2.964 0 0 1 1.168-1.657 3.298 3.298 0 0 1 2.017-.593c.313-.001.625.03.931.095v2.39a4.022 4.022 0 0 0-1.221-.154 2.893 2.893 0 0 0-1.154.192 2.752 2.752 0 0 0-.963.628 2.554 2.554 0 0 0-.596.948 2.432 2.432 0 0 0-.119 1.096v7.384h-2.718V29.483ZM159.967 38.276c-.366 2.26-2.707 3.81-5.702 3.81-3.851 0-6.242-2.426-6.242-6.319 0-3.904 2.404-6.437 6.128-6.437 3.663 0 5.967 2.366 5.967 6.14v.876h-9.352v.155c-.043.458.018.92.179 1.354.162.434.419.83.756 1.164.337.334.745.596 1.198.77.453.174.94.255 1.429.238a3.152 3.152 0 0 0 1.838-.399c.551-.316.979-.79 1.22-1.352h2.581Zm-9.188-3.716h6.62a2.838 2.838 0 0 0-.195-1.21 2.975 2.975 0 0 0-.695-1.037 3.207 3.207 0 0 0-1.077-.688 3.366 3.366 0 0 0-1.281-.224 3.543 3.543 0 0 0-1.291.235c-.409.158-.781.39-1.095.684a3.15 3.15 0 0 0-.731 1.027 2.994 2.994 0 0 0-.255 1.213ZM55.318 12.005a4.085 4.085 0 0 1 1.674.237 3.883 3.883 0 0 1 1.405.888c.393.39.689.857.866 1.367.178.51.233 1.052.16 1.585 0 2.62-1.506 4.127-4.105 4.127h-3.152v-8.204h3.152Zm-1.797 7.044h1.646a2.9 2.9 0 0 0 1.192-.184c.378-.143.718-.365.993-.647.276-.283.481-.62.6-.986.12-.367.152-.754.092-1.134.055-.377.021-.762-.1-1.126a2.554 2.554 0 0 0-.603-.979 2.76 2.76 0 0 0-.988-.643 2.907 2.907 0 0 0-1.186-.185H53.52v5.884ZM60.955 17.111a2.77 2.77 0 0 1 .145-1.205 2.9 2.9 0 0 1 .652-1.047 3.12 3.12 0 0 1 1.046-.71 3.29 3.29 0 0 1 2.525 0 3.12 3.12 0 0 1 1.046.71 2.9 2.9 0 0 1 .652 1.047c.137.388.186.798.145 1.205.042.407-.007.818-.144 1.207a2.9 2.9 0 0 1-.65 1.049 3.12 3.12 0 0 1-1.048.71 3.289 3.289 0 0 1-2.527 0 3.121 3.121 0 0 1-1.047-.71 2.898 2.898 0 0 1-.651-1.05 2.768 2.768 0 0 1-.144-1.206Zm4.874 0c0-1.342-.641-2.127-1.766-2.127-1.13 0-1.766.785-1.766 2.127 0 1.353.636 2.132 1.766 2.132 1.125 0 1.766-.785 1.766-2.132ZM75.422 20.21h-1.348l-1.361-4.56h-.103l-1.355 4.56h-1.336l-1.815-6.192h1.318l1.18 4.724h.097l1.354-4.724H73.3l1.354 4.724h.103l1.173-4.724h1.3l-1.808 6.191ZM78.757 14.018h1.25V15h.098c.165-.353.443-.649.795-.847a2.073 2.073 0 0 1 1.17-.256c.32-.022.642.023.942.133.299.11.568.282.787.503.218.222.382.486.477.775a1.9 1.9 0 0 1 .074.892v4.008h-1.3v-3.701c0-.995-.46-1.49-1.421-1.49a1.599 1.599 0 0 0-.637.102 1.519 1.519 0 0 0-.533.343c-.15.149-.263.327-.332.52-.07.195-.094.4-.07.604v3.622h-1.3v-6.191ZM86.42 11.6h1.3v8.61h-1.3V11.6ZM89.526 17.111a2.768 2.768 0 0 1 .146-1.205 2.9 2.9 0 0 1 .651-1.047 3.12 3.12 0 0 1 1.047-.71 3.29 3.29 0 0 1 2.525 0 3.12 3.12 0 0 1 1.046.71 2.9 2.9 0 0 1 .652 1.047c.137.388.186.798.145 1.205.042.407-.007.818-.144 1.207a2.899 2.899 0 0 1-.65 1.049 3.12 3.12 0 0 1-1.048.71 3.29 3.29 0 0 1-2.527 0 3.12 3.12 0 0 1-1.048-.71 2.899 2.899 0 0 1-.65-1.05 2.768 2.768 0 0 1-.145-1.206Zm4.875 0c0-1.342-.642-2.127-1.767-2.127-1.13 0-1.765.785-1.765 2.127 0 1.353.635 2.132 1.765 2.132 1.125 0 1.767-.785 1.767-2.132ZM97.106 18.458c0-1.114.883-1.757 2.45-1.848l1.783-.097v-.534c0-.654-.459-1.023-1.348-1.023-.725 0-1.228.25-1.372.688H97.36c.132-1.064 1.197-1.746 2.69-1.746 1.651 0 2.582.773 2.582 2.08v4.231h-1.251v-.87h-.102a2.17 2.17 0 0 1-.85.738c-.347.17-.737.251-1.129.234a2.11 2.11 0 0 1-.82-.081 2.026 2.026 0 0 1-.714-.387 1.88 1.88 0 0 1-.486-.627 1.776 1.776 0 0 1-.175-.758Zm4.233-.529v-.517l-1.608.096c-.906.057-1.318.348-1.318.893 0 .558.514.882 1.221.882.207.02.417 0 .616-.058a1.58 1.58 0 0 0 .542-.28c.159-.125.29-.28.384-.455.094-.175.149-.365.163-.56ZM104.341 17.11c0-1.955 1.07-3.195 2.734-3.195a2.28 2.28 0 0 1 1.177.267 2.1 2.1 0 0 1 .842.82h.097V11.6h1.3v8.608h-1.245v-.978h-.103c-.207.34-.509.621-.874.811-.365.19-.777.284-1.194.27-1.675 0-2.734-1.24-2.734-3.201Zm1.343 0c0 1.314.658 2.104 1.759 2.104 1.096 0 1.773-.801 1.773-2.098 0-1.29-.684-2.103-1.773-2.103-1.094 0-1.759.795-1.759 2.098ZM115.868 17.111a2.778 2.778 0 0 1 .145-1.205c.138-.388.359-.745.652-1.047a3.121 3.121 0 0 1 1.046-.71 3.294 3.294 0 0 1 2.525 0c.397.166.754.407 1.046.71.292.302.514.659.652 1.047.137.388.186.798.145 1.205a2.77 2.77 0 0 1-.144 1.207 2.88 2.88 0 0 1-.651 1.049 3.115 3.115 0 0 1-1.047.71 3.288 3.288 0 0 1-2.527 0 3.115 3.115 0 0 1-1.047-.71 2.88 2.88 0 0 1-.651-1.05 2.77 2.77 0 0 1-.144-1.206Zm4.874 0c0-1.342-.641-2.127-1.766-2.127-1.13 0-1.766.785-1.766 2.127 0 1.353.636 2.132 1.766 2.132 1.125 0 1.766-.785 1.766-2.132ZM123.823 14.018h1.251V15h.097c.165-.353.443-.649.795-.847a2.071 2.071 0 0 1 1.17-.256c.32-.022.642.023.941.133.3.11.569.282.788.503.218.222.382.486.477.775.095.288.12.593.073.892v4.008h-1.299v-3.701c0-.995-.46-1.49-1.421-1.49a1.6 1.6 0 0 0-.637.102 1.514 1.514 0 0 0-.533.343c-.149.149-.263.327-.332.52-.07.195-.094.4-.071.604v3.622h-1.299v-6.191ZM136.759 12.476v1.57h1.427v1.03h-1.427v3.183c0 .648.284.933.931.933.166-.001.331-.01.496-.029v1.018c-.234.04-.47.06-.707.063-1.445 0-2.021-.479-2.021-1.672v-3.497h-1.045v-1.029h1.045v-1.57h1.301ZM139.961 11.6h1.288v3.413h.103a1.95 1.95 0 0 1 .818-.853 2.128 2.128 0 0 1 1.19-.256c.319-.017.637.033.933.146.296.113.562.286.778.506.217.22.379.484.475.77.096.286.124.588.082.886v3.997h-1.301v-3.696c0-.989-.49-1.49-1.408-1.49a1.634 1.634 0 0 0-.659.085c-.21.073-.401.188-.559.338-.158.15-.279.33-.355.528-.076.198-.105.41-.085.62v3.615h-1.3v-8.608ZM153.206 18.538a2.532 2.532 0 0 1-1.081 1.382 2.808 2.808 0 0 1-1.773.409 3.152 3.152 0 0 1-1.263-.23 2.996 2.996 0 0 1-1.045-.706 2.766 2.766 0 0 1-.631-1.054 2.653 2.653 0 0 1-.103-1.206 2.696 2.696 0 0 1 .105-1.21c.126-.39.341-.752.628-1.059a3.04 3.04 0 0 1 1.04-.718 3.207 3.207 0 0 1 1.264-.248c1.832 0 2.937 1.177 2.937 3.122v.426h-4.65v.068c-.02.228.01.456.089.672.08.215.206.413.371.58.165.167.365.3.588.39.223.09.463.135.706.132.311.035.626-.017.905-.151s.509-.342.662-.6h1.251Zm-4.572-1.996h3.326a1.395 1.395 0 0 0-.088-.613 1.481 1.481 0 0 0-.344-.526 1.605 1.605 0 0 0-.542-.35 1.682 1.682 0 0 0-.647-.115 1.783 1.783 0 0 0-.656.117c-.208.08-.397.198-.556.347-.159.15-.284.328-.369.523a1.494 1.494 0 0 0-.124.617Z" fill="#fff"/></g><defs><clipPath id="clip0_220_83"><path fill="#fff" d="M0 0h175v55H0z"/></clipPath></defs></svg>